# xmcd
#
# Track frame offsets:
#	150
#	22134
#	40628
#	60166
#	69843
#	90694
#	108066
#	124691
#	142827
#	167223
#
# Disc length: 2398 seconds
#
# Revision: 1
# Processed by: cddbd v1.5.2PL0 Copyright (c) Steve Scherf et al.
# Submitted via: audiograbber 1.83.01
#
DISCID=74095c0a
DTITLE=Guthrie - Guthrie
DYEAR=2011
DGENRE=Swamp Stompin' Blues
TTITLE0=South
TTITLE1=Blues Ate My Homework
TTITLE2=Dog
TTITLE3=Little Ditty
TTITLE4=Last Laugh
TTITLE5=Bitch's Kitchen
TTITLE6=Stone Age
TTITLE7=Just as You Are
TTITLE8=Hitchin'
TTITLE9=Stompin' Ground
EXTD=
EXTT0=
EXTT1=
EXTT2=
EXTT3=
EXTT4=
EXTT5=
EXTT6=
EXTT7=
EXTT8=
EXTT9=
PLAYORDER=
